<svg width="1200" height="628" viewBox="0 0 1200 628" fill="none" xmlns="http://www.w3.org/2000/svg">
<rect width="1200" height="628" fill="url(#paint0_radial_617_976)"/>
<path d="M331.6 505.431C321.46 505.431 312.75 503.481 305.47 499.581C298.19 495.681 292.6 490.177 288.7 483.071C284.887 475.964 282.98 467.644 282.98 458.111C282.98 448.577 284.887 440.301 288.7 433.281C292.6 426.174 298.19 420.671 305.47 416.771C312.75 412.871 321.46 410.921 331.6 410.921C337.667 410.921 343.517 411.874 349.15 413.781C354.783 415.601 359.333 418.027 362.8 421.061L355.65 439.911C351.837 437.137 348.023 435.101 344.21 433.801C340.397 432.414 336.497 431.721 332.51 431.721C324.45 431.721 318.383 434.017 314.31 438.611C310.237 443.117 308.2 449.617 308.2 458.111C308.2 466.691 310.237 473.277 314.31 477.871C318.383 482.377 324.45 484.631 332.51 484.631C336.497 484.631 340.397 483.981 344.21 482.681C348.023 481.294 351.837 479.214 355.65 476.441L362.8 495.291C359.333 498.324 354.783 500.794 349.15 502.701C343.517 504.521 337.667 505.431 331.6 505.431ZM373.268 504.001V412.351H417.338C427.738 412.351 435.755 414.907 441.388 420.021C447.108 425.047 449.968 432.067 449.968 441.081C449.968 447.927 448.235 453.691 444.768 458.371C441.388 462.964 436.448 466.171 429.948 467.991C434.801 469.291 438.701 472.627 441.648 478.001L455.948 504.001H429.688L413.828 474.881C412.788 473.061 411.445 471.761 409.798 470.981C408.238 470.201 406.418 469.811 404.338 469.811H397.188V504.001H373.268ZM397.188 452.911H413.048C422.495 452.911 427.218 449.184 427.218 441.731C427.218 434.364 422.495 430.681 413.048 430.681H397.188V452.911ZM507.32 505.431C498.047 505.431 489.9 503.481 482.88 499.581C475.947 495.594 470.53 490.047 466.63 482.941C462.73 475.834 460.78 467.557 460.78 458.111C460.78 448.577 462.687 440.301 466.5 433.281C470.4 426.174 475.86 420.671 482.88 416.771C489.9 412.871 498.047 410.921 507.32 410.921C516.594 410.921 524.697 412.871 531.63 416.771C538.65 420.671 544.11 426.174 548.01 433.281C551.91 440.301 553.86 448.577 553.86 458.111C553.86 467.557 551.91 475.834 548.01 482.941C544.11 490.047 538.65 495.594 531.63 499.581C524.697 503.481 516.594 505.431 507.32 505.431ZM507.32 485.411C514.08 485.411 519.367 483.027 523.18 478.261C527.08 473.407 529.03 466.691 529.03 458.111C529.03 449.531 527.124 442.857 523.31 438.091C519.497 433.324 514.167 430.941 507.32 430.941C500.474 430.941 495.144 433.324 491.33 438.091C487.517 442.857 485.61 449.531 485.61 458.111C485.61 466.691 487.517 473.407 491.33 478.261C495.144 483.027 500.474 485.411 507.32 485.411ZM600.744 505.431C593.55 505.431 586.66 504.564 580.074 502.831C573.487 501.011 568.07 498.627 563.824 495.681L570.454 477.091C574.44 479.777 579.12 481.901 584.494 483.461C589.867 485.021 595.284 485.801 600.744 485.801C606.464 485.801 610.45 485.064 612.704 483.591C615.044 482.031 616.214 480.124 616.214 477.871C616.214 475.877 615.39 474.274 613.744 473.061C612.184 471.847 609.367 470.807 605.294 469.941L590.084 466.691C573.617 463.137 565.384 454.514 565.384 440.821C565.384 434.841 566.987 429.597 570.194 425.091C573.487 420.584 578.037 417.117 583.844 414.691C589.65 412.177 596.41 410.921 604.124 410.921C610.45 410.921 616.43 411.831 622.064 413.651C627.784 415.384 632.42 417.767 635.974 420.801L629.344 438.221C626.05 435.794 622.237 433.931 617.904 432.631C613.57 431.244 608.89 430.551 603.864 430.551C599.01 430.551 595.284 431.417 592.684 433.151C590.084 434.797 588.784 436.964 588.784 439.651C588.784 441.557 589.564 443.117 591.124 444.331C592.684 445.544 595.457 446.584 599.444 447.451L614.524 450.701C631.25 454.254 639.614 462.661 639.614 475.921C639.614 481.901 638.01 487.101 634.804 491.521C631.597 495.941 627.09 499.364 621.284 501.791C615.477 504.217 608.63 505.431 600.744 505.431ZM684.121 505.431C676.928 505.431 670.038 504.564 663.451 502.831C656.865 501.011 651.448 498.627 647.201 495.681L653.831 477.091C657.818 479.777 662.498 481.901 667.871 483.461C673.245 485.021 678.661 485.801 684.121 485.801C689.841 485.801 693.828 485.064 696.081 483.591C698.421 482.031 699.591 480.124 699.591 477.871C699.591 475.877 698.768 474.274 697.121 473.061C695.561 471.847 692.745 470.807 688.671 469.941L673.461 466.691C656.995 463.137 648.761 454.514 648.761 440.821C648.761 434.841 650.365 429.597 653.571 425.091C656.865 420.584 661.415 417.117 667.221 414.691C673.028 412.177 679.788 410.921 687.501 410.921C693.828 410.921 699.808 411.831 705.441 413.651C711.161 415.384 715.798 417.767 719.351 420.801L712.721 438.221C709.428 435.794 705.615 433.931 701.281 432.631C696.948 431.244 692.268 430.551 687.241 430.551C682.388 430.551 678.661 431.417 676.061 433.151C673.461 434.797 672.161 436.964 672.161 439.651C672.161 441.557 672.941 443.117 674.501 444.331C676.061 445.544 678.835 446.584 682.821 447.451L697.901 450.701C714.628 454.254 722.991 462.661 722.991 475.921C722.991 481.901 721.388 487.101 718.181 491.521C714.975 495.941 710.468 499.364 704.661 501.791C698.855 504.217 692.008 505.431 684.121 505.431ZM733.439 504.001V412.351H757.359V504.001H733.439ZM772.637 504.001V412.351H836.597V430.811H796.557V449.271H833.737V467.601H796.557V504.001H772.637ZM868.962 504.001V463.441L833.732 412.351H861.162L881.312 442.121L901.462 412.351H928.112L892.882 463.441V504.001H868.962Z" fill="#F0FDF4"/>
<path d="M656.455 223.932L697.057 264.533C698.695 266.171 698.695 268.811 697.057 270.482C682.52 284.985 668.018 299.521 653.482 314.024C651.845 315.661 649.17 315.661 647.533 314.024C633.999 300.49 620.499 286.956 606.966 273.422C603.69 270.147 598.344 270.147 595.068 273.422C581.535 286.956 568.001 300.49 554.501 314.024C552.83 315.661 550.189 315.661 548.552 314.024C534.016 299.521 519.514 284.985 504.977 270.482C503.339 268.811 503.339 266.171 504.977 264.533C518.511 250.999 532.045 237.466 545.579 223.932C548.853 220.657 548.853 215.344 545.579 212.069L504.977 171.467C503.339 169.83 503.339 167.156 504.977 165.519C519.514 151.016 534.016 136.48 548.552 121.977C550.189 120.339 552.83 120.339 554.501 121.977C568.001 135.511 581.535 149.044 595.068 162.545C598.344 165.853 603.69 165.853 606.966 162.545C620.499 149.044 633.999 135.511 647.533 121.977C649.17 120.339 651.845 120.339 653.482 121.977C668.018 136.48 682.52 151.016 697.057 165.519C698.695 167.156 698.695 169.83 697.057 171.467C683.523 185.001 669.989 198.535 656.455 212.069C653.182 215.344 653.182 220.657 656.455 223.932ZM601.017 78C523.691 78 461 140.69 461 217.984C461 295.31 523.691 358.001 601.017 358.001C678.343 358.001 741 295.31 741 217.984C741 140.69 678.343 78 601.017 78Z" fill="#22C55E"/>
<path d="M656.456 223.932C653.182 220.657 653.182 215.344 656.456 212.069C669.989 198.535 683.523 185.001 697.057 171.467C698.696 169.83 698.696 167.156 697.057 165.519C682.521 151.016 668.018 136.48 653.482 121.977C651.845 120.339 649.171 120.339 647.534 121.977C634 135.511 620.5 149.044 606.966 162.545C603.691 165.853 598.344 165.853 595.069 162.545C581.535 149.044 568.001 135.511 554.501 121.977C552.831 120.339 550.19 120.339 548.553 121.977C534.016 136.48 519.514 151.016 504.978 165.519C503.339 167.156 503.339 169.83 504.978 171.467L545.579 212.069C548.853 215.344 548.853 220.657 545.579 223.932C532.046 237.466 518.512 250.999 504.978 264.533C503.339 266.171 503.339 268.811 504.978 270.482C519.514 284.985 534.016 299.521 548.553 314.024C550.19 315.661 552.831 315.661 554.501 314.024C568.001 300.49 581.535 286.956 595.069 273.422C598.344 270.147 603.691 270.147 606.966 273.422C620.5 286.956 634 300.49 647.534 314.024C649.171 315.661 651.845 315.661 653.482 314.024C668.018 299.521 682.521 284.985 697.057 270.482C698.696 268.811 698.696 266.171 697.057 264.533L656.456 223.932Z" fill="#14532D"/>
<path d="M665.379 282.345C650.474 297.249 625.378 283.381 630.024 262.863C632.63 251.334 626.748 241.743 617.859 250.665C613.214 255.31 608.603 259.888 603.991 264.533C602.354 266.171 599.681 266.171 598.044 264.533C593.432 259.888 588.82 255.31 584.176 250.665C575.252 241.743 569.404 251.334 572.011 262.863C576.657 283.381 551.56 297.249 536.656 282.345C521.785 267.441 535.621 242.345 556.172 247.023C567.667 249.63 577.225 243.748 568.369 234.859C563.757 230.214 559.113 225.603 554.501 220.958C552.83 219.32 552.83 216.68 554.501 215.043C559.113 210.398 563.723 205.786 568.335 201.175C577.257 192.253 567.667 186.371 556.172 188.978C535.621 193.623 521.785 168.527 536.656 153.656C551.56 138.752 576.657 152.62 572.011 173.138C569.404 184.634 575.252 194.258 584.176 185.335C588.82 180.69 593.432 176.079 598.076 171.467C599.715 169.83 602.354 169.83 603.991 171.467C608.603 176.112 613.214 180.69 617.859 185.335C626.748 194.258 632.63 184.634 630.024 173.138C625.378 152.62 650.474 138.752 665.379 153.656C680.25 168.527 666.414 193.623 645.862 188.978C634.368 186.371 624.777 192.253 633.699 201.175C638.311 205.82 642.921 210.398 647.533 215.043C649.17 216.68 649.17 219.32 647.533 220.958C642.921 225.603 638.311 230.181 633.699 234.826C624.777 243.748 634.368 249.63 645.862 247.023C666.414 242.345 680.25 267.441 665.379 282.345Z" fill="#F0FDF4"/>
<defs>
<radialGradient id="paint0_radial_617_976" cx="0" cy="0" r="1" gradientUnits="userSpaceOnUse" gradientTransform="translate(600 272.108) rotate(18.4313) scale(2154.26 695.45)">
<stop offset="0.431076" stop-color="#072E2E"/>
<stop offset="1" stop-color="#5EEAD4"/>
</radialGradient>
</defs>
</svg>
