<svg width="1200" height="628" viewBox="0 0 1200 628" fill="none" xmlns="http://www.w3.org/2000/svg">
<rect width="1200" height="628" fill="url(#paint0_radial_617_976)"/>
<path d="M393 498.101C385.2 498.101 378.5 496.601 372.9 493.601C367.3 490.601 363 486.367 360 480.901C357.067 475.434 355.6 469.034 355.6 461.701C355.6 454.367 357.067 448.001 360 442.601C363 437.134 367.3 432.901 372.9 429.901C378.5 426.901 385.2 425.401 393 425.401C397.667 425.401 402.167 426.134 406.5 427.601C410.833 429.001 414.333 430.867 417 433.201L411.5 447.701C408.567 445.567 405.633 444.001 402.7 443.001C399.767 441.934 396.767 441.401 393.7 441.401C387.5 441.401 382.833 443.167 379.7 446.701C376.567 450.167 375 455.167 375 461.701C375 468.301 376.567 473.367 379.7 476.901C382.833 480.367 387.5 482.101 393.7 482.101C396.767 482.101 399.767 481.601 402.7 480.601C405.633 479.534 408.567 477.934 411.5 475.801L417 490.301C414.333 492.634 410.833 494.534 406.5 496.001C402.167 497.401 397.667 498.101 393 498.101ZM425.052 497.001V426.501H458.952C466.952 426.501 473.119 428.467 477.452 432.401C481.852 436.267 484.052 441.667 484.052 448.601C484.052 453.867 482.719 458.301 480.052 461.901C477.452 465.434 473.652 467.901 468.652 469.301C472.386 470.301 475.386 472.867 477.652 477.001L488.652 497.001H468.452L456.252 474.601C455.452 473.201 454.419 472.201 453.152 471.601C451.952 471.001 450.552 470.701 448.952 470.701H443.452V497.001H425.052ZM443.452 457.701H455.652C462.919 457.701 466.552 454.834 466.552 449.101C466.552 443.434 462.919 440.601 455.652 440.601H443.452V457.701ZM528.17 498.101C521.036 498.101 514.77 496.601 509.37 493.601C504.036 490.534 499.87 486.267 496.87 480.801C493.87 475.334 492.37 468.967 492.37 461.701C492.37 454.367 493.836 448.001 496.77 442.601C499.77 437.134 503.97 432.901 509.37 429.901C514.77 426.901 521.036 425.401 528.17 425.401C535.303 425.401 541.536 426.901 546.87 429.901C552.27 432.901 556.47 437.134 559.47 442.601C562.47 448.001 563.97 454.367 563.97 461.701C563.97 468.967 562.47 475.334 559.47 480.801C556.47 486.267 552.27 490.534 546.87 493.601C541.536 496.601 535.303 498.101 528.17 498.101ZM528.17 482.701C533.37 482.701 537.436 480.867 540.37 477.201C543.37 473.467 544.87 468.301 544.87 461.701C544.87 455.101 543.403 449.967 540.47 446.301C537.536 442.634 533.436 440.801 528.17 440.801C522.903 440.801 518.803 442.634 515.87 446.301C512.936 449.967 511.47 455.101 511.47 461.701C511.47 468.301 512.936 473.467 515.87 477.201C518.803 480.867 522.903 482.701 528.17 482.701ZM600.034 498.101C594.5 498.101 589.2 497.434 584.134 496.101C579.067 494.701 574.9 492.867 571.634 490.601L576.734 476.301C579.8 478.367 583.4 480.001 587.534 481.201C591.667 482.401 595.834 483.001 600.034 483.001C604.434 483.001 607.5 482.434 609.234 481.301C611.034 480.101 611.934 478.634 611.934 476.901C611.934 475.367 611.3 474.134 610.034 473.201C608.834 472.267 606.667 471.467 603.534 470.801L591.834 468.301C579.167 465.567 572.834 458.934 572.834 448.401C572.834 443.801 574.067 439.767 576.534 436.301C579.067 432.834 582.567 430.167 587.034 428.301C591.5 426.367 596.7 425.401 602.634 425.401C607.5 425.401 612.1 426.101 616.434 427.501C620.834 428.834 624.4 430.667 627.134 433.001L622.034 446.401C619.5 444.534 616.567 443.101 613.234 442.101C609.9 441.034 606.3 440.501 602.434 440.501C598.7 440.501 595.834 441.167 593.834 442.501C591.834 443.767 590.834 445.434 590.834 447.501C590.834 448.967 591.434 450.167 592.634 451.101C593.834 452.034 595.967 452.834 599.034 453.501L610.634 456.001C623.5 458.734 629.934 465.201 629.934 475.401C629.934 480.001 628.7 484.001 626.234 487.401C623.767 490.801 620.3 493.434 615.834 495.301C611.367 497.167 606.1 498.101 600.034 498.101ZM664.17 498.101C658.637 498.101 653.337 497.434 648.27 496.101C643.204 494.701 639.037 492.867 635.77 490.601L640.87 476.301C643.937 478.367 647.537 480.001 651.67 481.201C655.804 482.401 659.97 483.001 664.17 483.001C668.57 483.001 671.637 482.434 673.37 481.301C675.17 480.101 676.07 478.634 676.07 476.901C676.07 475.367 675.437 474.134 674.17 473.201C672.97 472.267 670.804 471.467 667.67 470.801L655.97 468.301C643.304 465.567 636.97 458.934 636.97 448.401C636.97 443.801 638.204 439.767 640.67 436.301C643.204 432.834 646.704 430.167 651.17 428.301C655.637 426.367 660.837 425.401 666.77 425.401C671.637 425.401 676.237 426.101 680.57 427.501C684.97 428.834 688.537 430.667 691.27 433.001L686.17 446.401C683.637 444.534 680.704 443.101 677.37 442.101C674.037 441.034 670.437 440.501 666.57 440.501C662.837 440.501 659.97 441.167 657.97 442.501C655.97 443.767 654.97 445.434 654.97 447.501C654.97 448.967 655.57 450.167 656.77 451.101C657.97 452.034 660.104 452.834 663.17 453.501L674.77 456.001C687.637 458.734 694.07 465.201 694.07 475.401C694.07 480.001 692.837 484.001 690.37 487.401C687.904 490.801 684.437 493.434 679.97 495.301C675.504 497.167 670.237 498.101 664.17 498.101ZM702.107 497.001V426.501H720.507V497.001H702.107ZM732.259 497.001V426.501H781.459V440.701H750.659V454.901H779.259V469.001H750.659V497.001H732.259ZM806.355 497.001V465.801L779.255 426.501H800.355L815.855 449.401L831.355 426.501H851.855L824.755 465.801V497.001H806.355Z" fill="#F0FDF4"/>
<path d="M655.455 261.932L696.057 302.533C697.695 304.171 697.695 306.811 696.057 308.482C681.52 322.985 667.018 337.521 652.482 352.024C650.845 353.661 648.17 353.661 646.533 352.024C632.999 338.49 619.499 324.956 605.966 311.422C602.69 308.147 597.344 308.147 594.068 311.422C580.535 324.956 567.001 338.49 553.501 352.024C551.83 353.661 549.189 353.661 547.552 352.024C533.016 337.521 518.514 322.985 503.977 308.482C502.339 306.811 502.339 304.171 503.977 302.533C517.511 288.999 531.045 275.466 544.579 261.932C547.853 258.657 547.853 253.344 544.579 250.069L503.977 209.467C502.339 207.83 502.339 205.156 503.977 203.519C518.514 189.016 533.016 174.48 547.552 159.977C549.189 158.339 551.83 158.339 553.501 159.977C567.001 173.511 580.535 187.044 594.068 200.545C597.344 203.853 602.69 203.853 605.966 200.545C619.499 187.044 632.999 173.511 646.533 159.977C648.17 158.339 650.845 158.339 652.482 159.977C667.018 174.48 681.52 189.016 696.057 203.519C697.695 205.156 697.695 207.83 696.057 209.467C682.523 223.001 668.989 236.535 655.455 250.069C652.182 253.344 652.182 258.657 655.455 261.932ZM600.017 116C522.691 116 460 178.69 460 255.984C460 333.31 522.691 396.001 600.017 396.001C677.343 396.001 740 333.31 740 255.984C740 178.69 677.343 116 600.017 116Z" fill="#22C55E"/>
<path d="M655.456 261.932C652.182 258.657 652.182 253.344 655.456 250.069C668.989 236.535 682.523 223.001 696.057 209.467C697.696 207.83 697.696 205.156 696.057 203.519C681.521 189.016 667.018 174.48 652.482 159.977C650.845 158.339 648.171 158.339 646.534 159.977C633 173.511 619.5 187.044 605.966 200.545C602.691 203.853 597.344 203.853 594.069 200.545C580.535 187.044 567.001 173.511 553.501 159.977C551.831 158.339 549.19 158.339 547.553 159.977C533.016 174.48 518.514 189.016 503.978 203.519C502.339 205.156 502.339 207.83 503.978 209.467L544.579 250.069C547.853 253.344 547.853 258.657 544.579 261.932C531.046 275.466 517.512 288.999 503.978 302.533C502.339 304.171 502.339 306.811 503.978 308.482C518.514 322.985 533.016 337.521 547.553 352.024C549.19 353.661 551.831 353.661 553.501 352.024C567.001 338.49 580.535 324.956 594.069 311.422C597.344 308.147 602.691 308.147 605.966 311.422C619.5 324.956 633 338.49 646.534 352.024C648.171 353.661 650.845 353.661 652.482 352.024C667.018 337.521 681.521 322.985 696.057 308.482C697.696 306.811 697.696 304.171 696.057 302.533L655.456 261.932Z" fill="#14532D"/>
<path d="M664.379 320.345C649.474 335.249 624.378 321.381 629.024 300.863C631.63 289.334 625.748 279.743 616.859 288.665C612.214 293.31 607.603 297.888 602.991 302.533C601.354 304.171 598.681 304.171 597.044 302.533C592.432 297.888 587.82 293.31 583.176 288.665C574.252 279.743 568.404 289.334 571.011 300.863C575.657 321.381 550.56 335.249 535.656 320.345C520.785 305.441 534.621 280.345 555.172 285.023C566.667 287.63 576.225 281.748 567.369 272.859C562.757 268.214 558.113 263.603 553.501 258.958C551.83 257.32 551.83 254.68 553.501 253.043C558.113 248.398 562.723 243.786 567.335 239.175C576.257 230.253 566.667 224.371 555.172 226.978C534.621 231.623 520.785 206.527 535.656 191.656C550.56 176.752 575.657 190.62 571.011 211.138C568.404 222.634 574.252 232.258 583.176 223.335C587.82 218.69 592.432 214.079 597.076 209.467C598.715 207.83 601.354 207.83 602.991 209.467C607.603 214.112 612.214 218.69 616.859 223.335C625.748 232.258 631.63 222.634 629.024 211.138C624.378 190.62 649.474 176.752 664.379 191.656C679.25 206.527 665.414 231.623 644.862 226.978C633.368 224.371 623.777 230.253 632.699 239.175C637.311 243.82 641.921 248.398 646.533 253.043C648.17 254.68 648.17 257.32 646.533 258.958C641.921 263.603 637.311 268.181 632.699 272.826C623.777 281.748 633.368 287.63 644.862 285.023C665.414 280.345 679.25 305.441 664.379 320.345Z" fill="#F0FDF4"/>
<defs>
<radialGradient id="paint0_radial_617_976" cx="0" cy="0" r="1" gradientUnits="userSpaceOnUse" gradientTransform="translate(600 272.108) rotate(18.4313) scale(2154.26 695.45)">
<stop offset="0.431076" stop-color="#072E2E"/>
<stop offset="1" stop-color="#5EEAD4"/>
</radialGradient>
</defs>
</svg>
