<svg width="400" height="280" viewBox="0 0 400 280" fill="none" xmlns="http://www.w3.org/2000/svg">
<rect width="400" height="280" fill="url(#paint0_radial_617_976)"/>
<path d="M76.2 220.66C71.52 220.66 67.5 219.76 64.14 217.96C60.78 216.16 58.2 213.62 56.4 210.34C54.64 207.06 53.76 203.22 53.76 198.82C53.76 194.42 54.64 190.6 56.4 187.36C58.2 184.08 60.78 181.54 64.14 179.74C67.5 177.94 71.52 177.04 76.2 177.04C79 177.04 81.7 177.48 84.3 178.36C86.9 179.2 89 180.32 90.6 181.72L87.3 190.42C85.54 189.14 83.78 188.2 82.02 187.6C80.26 186.96 78.46 186.64 76.62 186.64C72.9 186.64 70.1 187.7 68.22 189.82C66.34 191.9 65.4 194.9 65.4 198.82C65.4 202.78 66.34 205.82 68.22 207.94C70.1 210.02 72.9 211.06 76.62 211.06C78.46 211.06 80.26 210.76 82.02 210.16C83.78 209.52 85.54 208.56 87.3 207.28L90.6 215.98C89 217.38 86.9 218.52 84.3 219.4C81.7 220.24 79 220.66 76.2 220.66ZM95.4314 220V177.7H115.771C120.571 177.7 124.271 178.88 126.871 181.24C129.511 183.56 130.831 186.8 130.831 190.96C130.831 194.12 130.031 196.78 128.431 198.94C126.871 201.06 124.591 202.54 121.591 203.38C123.831 203.98 125.631 205.52 126.991 208L133.591 220H121.471L114.151 206.56C113.671 205.72 113.051 205.12 112.291 204.76C111.571 204.4 110.731 204.22 109.771 204.22H106.471V220H95.4314ZM106.471 196.42H113.791C118.151 196.42 120.331 194.7 120.331 191.26C120.331 187.86 118.151 186.16 113.791 186.16H106.471V196.42ZM157.302 220.66C153.022 220.66 149.262 219.76 146.022 217.96C142.822 216.12 140.322 213.56 138.522 210.28C136.722 207 135.822 203.18 135.822 198.82C135.822 194.42 136.702 190.6 138.462 187.36C140.262 184.08 142.782 181.54 146.022 179.74C149.262 177.94 153.022 177.04 157.302 177.04C161.582 177.04 165.322 177.94 168.522 179.74C171.762 181.54 174.282 184.08 176.082 187.36C177.882 190.6 178.782 194.42 178.782 198.82C178.782 203.18 177.882 207 176.082 210.28C174.282 213.56 171.762 216.12 168.522 217.96C165.322 219.76 161.582 220.66 157.302 220.66ZM157.302 211.42C160.422 211.42 162.862 210.32 164.622 208.12C166.422 205.88 167.322 202.78 167.322 198.82C167.322 194.86 166.442 191.78 164.682 189.58C162.922 187.38 160.462 186.28 157.302 186.28C154.142 186.28 151.682 187.38 149.922 189.58C148.162 191.78 147.282 194.86 147.282 198.82C147.282 202.78 148.162 205.88 149.922 208.12C151.682 210.32 154.142 211.42 157.302 211.42ZM200.42 220.66C197.1 220.66 193.92 220.26 190.88 219.46C187.84 218.62 185.34 217.52 183.38 216.16L186.44 207.58C188.28 208.82 190.44 209.8 192.92 210.52C195.4 211.24 197.9 211.6 200.42 211.6C203.06 211.6 204.9 211.26 205.94 210.58C207.02 209.86 207.56 208.98 207.56 207.94C207.56 207.02 207.18 206.28 206.42 205.72C205.7 205.16 204.4 204.68 202.52 204.28L195.5 202.78C187.9 201.14 184.1 197.16 184.1 190.84C184.1 188.08 184.84 185.66 186.32 183.58C187.84 181.5 189.94 179.9 192.62 178.78C195.3 177.62 198.42 177.04 201.98 177.04C204.9 177.04 207.66 177.46 210.26 178.3C212.9 179.1 215.04 180.2 216.68 181.6L213.62 189.64C212.1 188.52 210.34 187.66 208.34 187.06C206.34 186.42 204.18 186.1 201.86 186.1C199.62 186.1 197.9 186.5 196.7 187.3C195.5 188.06 194.9 189.06 194.9 190.3C194.9 191.18 195.26 191.9 195.98 192.46C196.7 193.02 197.98 193.5 199.82 193.9L206.78 195.4C214.5 197.04 218.36 200.92 218.36 207.04C218.36 209.8 217.62 212.2 216.14 214.24C214.66 216.28 212.58 217.86 209.9 218.98C207.22 220.1 204.06 220.66 200.42 220.66ZM238.902 220.66C235.582 220.66 232.402 220.26 229.362 219.46C226.322 218.62 223.822 217.52 221.862 216.16L224.922 207.58C226.762 208.82 228.922 209.8 231.402 210.52C233.882 211.24 236.382 211.6 238.902 211.6C241.542 211.6 243.382 211.26 244.422 210.58C245.502 209.86 246.042 208.98 246.042 207.94C246.042 207.02 245.662 206.28 244.902 205.72C244.182 205.16 242.882 204.68 241.002 204.28L233.982 202.78C226.382 201.14 222.582 197.16 222.582 190.84C222.582 188.08 223.322 185.66 224.802 183.58C226.322 181.5 228.422 179.9 231.102 178.78C233.782 177.62 236.902 177.04 240.462 177.04C243.382 177.04 246.142 177.46 248.742 178.3C251.382 179.1 253.522 180.2 255.162 181.6L252.102 189.64C250.582 188.52 248.822 187.66 246.822 187.06C244.822 186.42 242.662 186.1 240.342 186.1C238.102 186.1 236.382 186.5 235.182 187.3C233.982 188.06 233.382 189.06 233.382 190.3C233.382 191.18 233.742 191.9 234.462 192.46C235.182 193.02 236.462 193.5 238.302 193.9L245.262 195.4C252.982 197.04 256.842 200.92 256.842 207.04C256.842 209.8 256.102 212.2 254.622 214.24C253.142 216.28 251.062 217.86 248.382 218.98C245.702 220.1 242.542 220.66 238.902 220.66ZM261.664 220V177.7H272.704V220H261.664ZM279.756 220V177.7H309.276V186.22H290.796V194.74H307.956V203.2H290.796V220H279.756ZM324.213 220V201.28L307.953 177.7H320.613L329.913 191.44L339.213 177.7H351.513L335.253 201.28V220H324.213Z" fill="#F0FDF4"/>
<path d="M224.766 101.542L242.167 118.943C242.869 119.645 242.869 120.776 242.167 121.492C235.937 127.708 229.722 133.938 223.492 140.153C222.791 140.855 221.644 140.855 220.943 140.153C215.143 134.353 209.357 128.553 203.557 122.752C202.153 121.349 199.862 121.349 198.458 122.752C192.658 128.553 186.857 134.353 181.072 140.153C180.356 140.855 179.224 140.855 178.522 140.153C172.293 133.938 166.077 127.708 159.847 121.492C159.145 120.776 159.145 119.645 159.847 118.943C165.648 113.143 171.448 107.342 177.248 101.542C178.651 100.139 178.651 97.8615 177.248 96.458L159.847 79.0573C159.145 78.3556 159.145 77.2099 159.847 76.5081C166.077 70.2925 172.293 64.0627 178.522 57.8471C179.224 57.1454 180.356 57.1454 181.072 57.8471C186.857 63.6473 192.658 69.4476 198.458 75.2335C199.862 76.6513 202.153 76.6513 203.557 75.2335C209.357 69.4476 215.143 63.6473 220.943 57.8471C221.644 57.1454 222.791 57.1454 223.492 57.8471C229.722 64.0627 235.937 70.2925 242.167 76.5081C242.869 77.2099 242.869 78.3556 242.167 79.0573C236.367 84.8575 230.567 90.6578 224.766 96.458C223.364 97.8615 223.364 100.139 224.766 101.542ZM201.007 39C167.868 39 141 65.8672 141 98.9929C141 132.133 167.868 159 201.007 159C234.147 159 261 132.133 261 98.9929C261 65.8672 234.147 39 201.007 39Z" fill="#22C55E"/>
<path d="M224.767 101.542C223.364 100.139 223.364 97.8616 224.767 96.4581C230.567 90.6578 236.367 84.8576 242.167 79.0574C242.87 78.3556 242.87 77.2099 242.167 76.5082C235.937 70.2926 229.722 64.0627 223.492 57.8472C222.791 57.1454 221.645 57.1454 220.943 57.8472C215.143 63.6474 209.357 69.4476 203.557 75.2335C202.153 76.6514 199.862 76.6514 198.458 75.2335C192.658 69.4476 186.858 63.6474 181.072 57.8472C180.356 57.1454 179.224 57.1454 178.523 57.8472C172.293 64.0627 166.077 70.2926 159.848 76.5082C159.145 77.2099 159.145 78.3556 159.848 79.0574L177.248 96.4581C178.651 97.8616 178.651 100.139 177.248 101.542C171.448 107.342 165.648 113.143 159.848 118.943C159.145 119.645 159.145 120.776 159.848 121.492C166.077 127.708 172.293 133.938 178.523 140.153C179.224 140.855 180.356 140.855 181.072 140.153C186.858 134.353 192.658 128.553 198.458 122.752C199.862 121.349 202.153 121.349 203.557 122.752C209.357 128.553 215.143 134.353 220.943 140.153C221.645 140.855 222.791 140.855 223.492 140.153C229.722 133.938 235.937 127.708 242.167 121.492C242.87 120.776 242.87 119.645 242.167 118.943L224.767 101.542Z" fill="#14532D"/>
<path d="M228.591 126.576C222.203 132.964 211.448 127.02 213.439 118.227C214.556 113.286 212.035 109.176 208.225 112.999C206.235 114.99 204.258 116.952 202.282 118.943C201.58 119.645 200.435 119.645 199.733 118.943C197.757 116.952 195.78 114.99 193.79 112.999C189.965 109.176 187.459 113.286 188.576 118.227C190.567 127.02 179.811 132.964 173.424 126.576C167.051 120.189 172.98 109.433 181.788 111.438C186.714 112.555 190.811 110.035 187.015 106.225C185.039 104.235 183.048 102.258 181.072 100.268C180.356 99.5658 180.356 98.4344 181.072 97.7327C183.048 95.742 185.024 93.7656 187.001 91.7892C190.824 87.9654 186.714 85.4448 181.788 86.5619C172.98 88.5526 167.051 77.7971 173.424 71.424C179.811 65.0366 190.567 70.98 188.576 79.7734C187.459 84.7 189.965 88.8246 193.79 85.0008C195.78 83.0101 197.757 81.0337 199.747 79.0573C200.449 78.3556 201.58 78.3556 202.282 79.0573C204.258 81.048 206.235 83.0101 208.225 85.0008C212.035 88.8246 214.556 84.7 213.439 79.7734C211.448 70.98 222.203 65.0366 228.591 71.424C234.964 77.7971 229.035 88.5526 220.227 86.5619C215.3 85.4448 211.19 87.9654 215.014 91.7892C216.991 93.7799 218.966 95.742 220.943 97.7327C221.644 98.4344 221.644 99.5658 220.943 100.268C218.966 102.258 216.991 104.22 215.014 106.211C211.19 110.035 215.3 112.555 220.227 111.438C229.035 109.433 234.964 120.189 228.591 126.576Z" fill="#F0FDF4"/>
<defs>
<radialGradient id="paint0_radial_617_976" cx="0" cy="0" r="1" gradientUnits="userSpaceOnUse" gradientTransform="translate(200 121.322) rotate(24.0257) scale(745.87 298.523)">
<stop offset="0.431076" stop-color="#072E2E"/>
<stop offset="1" stop-color="#5EEAD4"/>
</radialGradient>
</defs>
</svg>
