<svg width="400" height="280" viewBox="0 0 400 280" fill="none" xmlns="http://www.w3.org/2000/svg">
<rect width="400" height="280" fill="url(#paint0_radial_617_976)"/>
<path d="M86.1 214.605C81.81 214.605 78.125 213.78 75.045 212.13C71.965 210.48 69.6 208.151 67.95 205.145C66.3367 202.138 65.53 198.618 65.53 194.585C65.53 190.551 66.3367 187.05 67.95 184.08C69.6 181.073 71.965 178.745 75.045 177.095C78.125 175.445 81.81 174.62 86.1 174.62C88.6667 174.62 91.1417 175.023 93.525 175.83C95.9083 176.6 97.8333 177.626 99.3 178.91L96.275 186.885C94.6617 185.711 93.0483 184.85 91.435 184.3C89.8217 183.713 88.1717 183.42 86.485 183.42C83.075 183.42 80.5083 184.391 78.785 186.335C77.0617 188.241 76.2 190.991 76.2 194.585C76.2 198.215 77.0617 201.001 78.785 202.945C80.5083 204.851 83.075 205.805 86.485 205.805C88.1717 205.805 89.8217 205.53 91.435 204.98C93.0483 204.393 94.6617 203.513 96.275 202.34L99.3 210.315C97.8333 211.598 95.9083 212.643 93.525 213.45C91.1417 214.22 88.6667 214.605 86.1 214.605ZM103.729 214V175.225H122.374C126.774 175.225 130.165 176.306 132.549 178.47C134.969 180.596 136.179 183.566 136.179 187.38C136.179 190.276 135.445 192.715 133.979 194.695C132.549 196.638 130.459 197.995 127.709 198.765C129.762 199.315 131.412 200.726 132.659 203L138.709 214H127.599L120.889 201.68C120.449 200.91 119.88 200.36 119.184 200.03C118.524 199.7 117.754 199.535 116.874 199.535H113.849V214H103.729ZM113.849 192.385H120.559C124.555 192.385 126.554 190.808 126.554 187.655C126.554 184.538 124.555 182.98 120.559 182.98H113.849V192.385ZM160.443 214.605C156.52 214.605 153.073 213.78 150.103 212.13C147.17 210.443 144.878 208.096 143.228 205.09C141.578 202.083 140.753 198.581 140.753 194.585C140.753 190.551 141.56 187.05 143.173 184.08C144.823 181.073 147.133 178.745 150.103 177.095C153.073 175.445 156.52 174.62 160.443 174.62C164.367 174.62 167.795 175.445 170.728 177.095C173.698 178.745 176.008 181.073 177.658 184.08C179.308 187.05 180.133 190.551 180.133 194.585C180.133 198.581 179.308 202.083 177.658 205.09C176.008 208.096 173.698 210.443 170.728 212.13C167.795 213.78 164.367 214.605 160.443 214.605ZM160.443 206.135C163.303 206.135 165.54 205.126 167.153 203.11C168.803 201.056 169.628 198.215 169.628 194.585C169.628 190.955 168.822 188.131 167.208 186.115C165.595 184.098 163.34 183.09 160.443 183.09C157.547 183.09 155.292 184.098 153.678 186.115C152.065 188.131 151.258 190.955 151.258 194.585C151.258 198.215 152.065 201.056 153.678 203.11C155.292 205.126 157.547 206.135 160.443 206.135ZM199.968 214.605C196.925 214.605 194.01 214.238 191.223 213.505C188.437 212.735 186.145 211.726 184.348 210.48L187.153 202.615C188.84 203.751 190.82 204.65 193.093 205.31C195.367 205.97 197.658 206.3 199.968 206.3C202.388 206.3 204.075 205.988 205.028 205.365C206.018 204.705 206.513 203.898 206.513 202.945C206.513 202.101 206.165 201.423 205.468 200.91C204.808 200.396 203.617 199.956 201.893 199.59L195.458 198.215C188.492 196.711 185.008 193.063 185.008 187.27C185.008 184.74 185.687 182.521 187.043 180.615C188.437 178.708 190.362 177.241 192.818 176.215C195.275 175.151 198.135 174.62 201.398 174.62C204.075 174.62 206.605 175.005 208.988 175.775C211.408 176.508 213.37 177.516 214.873 178.8L212.068 186.17C210.675 185.143 209.062 184.355 207.228 183.805C205.395 183.218 203.415 182.925 201.288 182.925C199.235 182.925 197.658 183.291 196.558 184.025C195.458 184.721 194.908 185.638 194.908 186.775C194.908 187.581 195.238 188.241 195.898 188.755C196.558 189.268 197.732 189.708 199.418 190.075L205.798 191.45C212.875 192.953 216.413 196.51 216.413 202.12C216.413 204.65 215.735 206.85 214.378 208.72C213.022 210.59 211.115 212.038 208.658 213.065C206.202 214.091 203.305 214.605 199.968 214.605ZM235.244 214.605C232.2 214.605 229.285 214.238 226.499 213.505C223.712 212.735 221.42 211.726 219.624 210.48L222.429 202.615C224.115 203.751 226.095 204.65 228.369 205.31C230.642 205.97 232.934 206.3 235.244 206.3C237.664 206.3 239.35 205.988 240.304 205.365C241.294 204.705 241.789 203.898 241.789 202.945C241.789 202.101 241.44 201.423 240.744 200.91C240.084 200.396 238.892 199.956 237.169 199.59L230.734 198.215C223.767 196.711 220.284 193.063 220.284 187.27C220.284 184.74 220.962 182.521 222.319 180.615C223.712 178.708 225.637 177.241 228.094 176.215C230.55 175.151 233.41 174.62 236.674 174.62C239.35 174.62 241.88 175.005 244.264 175.775C246.684 176.508 248.645 177.516 250.149 178.8L247.344 186.17C245.95 185.143 244.337 184.355 242.504 183.805C240.67 183.218 238.69 182.925 236.564 182.925C234.51 182.925 232.934 183.291 231.834 184.025C230.734 184.721 230.184 185.638 230.184 186.775C230.184 187.581 230.514 188.241 231.174 188.755C231.834 189.268 233.007 189.708 234.694 190.075L241.074 191.45C248.15 192.953 251.689 196.51 251.689 202.12C251.689 204.65 251.01 206.85 249.654 208.72C248.297 210.59 246.39 212.038 243.934 213.065C241.477 214.091 238.58 214.605 235.244 214.605ZM256.109 214V175.225H266.229V214H256.109ZM272.693 214V175.225H299.753V183.035H282.813V190.845H298.543V198.6H282.813V214H272.693ZM313.446 214V196.84L298.541 175.225H310.146L318.671 187.82L327.196 175.225H338.471L323.566 196.84V214H313.446Z" fill="#F0FDF4"/>
<path d="M221.786 105.33L237.736 121.281C238.38 121.924 238.38 122.961 237.736 123.618C232.026 129.315 226.328 135.026 220.618 140.723C219.975 141.367 218.924 141.367 218.281 140.723C212.964 135.407 207.66 130.09 202.343 124.773C201.057 123.486 198.956 123.486 197.67 124.773C192.353 130.09 187.036 135.407 181.732 140.723C181.076 141.367 180.039 141.367 179.396 140.723C173.685 135.026 167.987 129.315 162.277 123.618C161.633 122.961 161.633 121.924 162.277 121.281C167.594 115.964 172.911 110.647 178.227 105.33C179.513 104.044 179.513 101.956 178.227 100.67L162.277 84.7191C161.633 84.0759 161.633 83.0256 162.277 82.3824C167.987 76.6848 173.685 70.9741 179.396 65.2765C180.039 64.6332 181.076 64.6332 181.732 65.2765C187.036 70.5934 192.353 75.9102 197.67 81.214C198.956 82.5136 201.057 82.5136 202.343 81.214C207.66 75.9102 212.964 70.5934 218.281 65.2765C218.924 64.6332 219.975 64.6332 220.618 65.2765C226.328 70.9741 232.026 76.6848 237.736 82.3824C238.38 83.0256 238.38 84.0759 237.736 84.7191C232.419 90.036 227.103 95.3529 221.786 100.67C220.5 101.956 220.5 104.044 221.786 105.33ZM200.007 48C169.629 48 145 72.6282 145 102.993C145 133.372 169.629 158 200.007 158C230.385 158 255 133.372 255 102.993C255 72.6282 230.385 48 200.007 48Z" fill="#22C55E"/>
<path d="M221.786 105.33C220.5 104.044 220.5 101.956 221.786 100.67C227.103 95.3529 232.42 90.036 237.737 84.7192C238.38 84.0759 238.38 83.0257 237.737 82.3824C232.026 76.6848 226.328 70.9741 220.618 65.2765C219.975 64.6333 218.924 64.6333 218.281 65.2765C212.964 70.5934 207.661 75.9102 202.344 81.214C201.057 82.5137 198.956 82.5137 197.67 81.214C192.353 75.9102 187.036 70.5934 181.733 65.2765C181.076 64.6333 180.039 64.6333 179.396 65.2765C173.685 70.9741 167.988 76.6848 162.277 82.3824C161.633 83.0257 161.633 84.0759 162.277 84.7192L178.228 100.67C179.514 101.956 179.514 104.044 178.228 105.33C172.911 110.647 167.594 115.964 162.277 121.281C161.633 121.924 161.633 122.961 162.277 123.618C167.988 129.315 173.685 135.026 179.396 140.723C180.039 141.367 181.076 141.367 181.733 140.723C187.036 135.407 192.353 130.09 197.67 124.773C198.956 123.486 201.057 123.486 202.344 124.773C207.661 130.09 212.964 135.407 218.281 140.723C218.924 141.367 219.975 141.367 220.618 140.723C226.328 135.026 232.026 129.315 237.737 123.618C238.38 122.961 238.38 121.924 237.737 121.281L221.786 105.33Z" fill="#14532D"/>
<path d="M225.292 128.278C219.436 134.133 209.577 128.685 211.402 120.624C212.426 116.095 210.115 112.328 206.623 115.833C204.798 117.658 202.987 119.456 201.175 121.281C200.532 121.924 199.482 121.924 198.839 121.281C197.027 119.456 195.215 117.658 193.39 115.833C189.885 112.328 187.587 116.095 188.611 120.624C190.437 128.685 180.577 134.133 174.722 128.278C168.88 122.423 174.315 112.564 182.389 114.402C186.905 115.426 190.66 113.115 187.181 109.623C185.369 107.798 183.544 105.987 181.733 104.162C181.076 103.519 181.076 102.482 181.733 101.838C183.544 100.013 185.355 98.2018 187.167 96.3901C190.672 92.8849 186.905 90.5744 182.389 91.5983C174.315 93.4231 168.88 83.564 174.722 77.722C180.577 71.8669 190.437 77.315 188.611 85.3756C187.587 89.8917 189.885 93.6726 193.39 90.1674C195.215 88.3426 197.027 86.5309 198.851 84.7192C199.495 84.0759 200.532 84.0759 201.175 84.7192C202.987 86.544 204.798 88.3426 206.623 90.1674C210.115 93.6726 212.426 89.8917 211.402 85.3756C209.577 77.315 219.436 71.8669 225.292 77.722C231.134 83.564 225.698 93.4231 217.624 91.5983C213.109 90.5744 209.341 92.8849 212.846 96.3901C214.658 98.2149 216.469 100.013 218.281 101.838C218.924 102.482 218.924 103.519 218.281 104.162C216.469 105.987 214.658 107.785 212.846 109.61C209.341 113.115 213.109 115.426 217.624 114.402C225.698 112.564 231.134 122.423 225.292 128.278Z" fill="#F0FDF4"/>
<defs>
<radialGradient id="paint0_radial_617_976" cx="0" cy="0" r="1" gradientUnits="userSpaceOnUse" gradientTransform="translate(200 121.322) rotate(24.0257) scale(745.87 298.523)">
<stop offset="0.431076" stop-color="#072E2E"/>
<stop offset="1" stop-color="#5EEAD4"/>
</radialGradient>
</defs>
</svg>
